<?xml version="1.0" encoding="UTF-8"?>
<svg xmlns="http://www.w3.org/2000/svg" style="display:none">
<symbol id="i-search" viewBox="0 0 24 24" fill="none" stroke="currentColor" stroke-width="2" stroke-linecap="round" stroke-linejoin="round">
<path d="M3 10a7 7 0 1 0 14 0a7 7 0 1 0 -14 0" />
<path d="M21 21l-6 -6" />
</symbol>
<symbol id="i-bell" viewBox="0 0 24 24" fill="none" stroke="currentColor" stroke-width="2" stroke-linecap="round" stroke-linejoin="round">
<path d="M10 5a2 2 0 1 1 4 0a7 7 0 0 1 4 6v3a4 4 0 0 0 2 3h-16a4 4 0 0 0 2 -3v-3a7 7 0 0 1 4 -6" />
<path d="M9 17v1a3 3 0 0 0 6 0v-1" />
</symbol>
<symbol id="i-folder" viewBox="0 0 24 24" fill="none" stroke="currentColor" stroke-width="2" stroke-linecap="round" stroke-linejoin="round">
<path d="M5 4h4l3 3h7a2 2 0 0 1 2 2v8a2 2 0 0 1 -2 2h-14a2 2 0 0 1 -2 -2v-11a2 2 0 0 1 2 -2" />
</symbol>
<symbol id="i-folder-open" viewBox="0 0 24 24" fill="none" stroke="currentColor" stroke-width="2" stroke-linecap="round" stroke-linejoin="round">
<path d="M5 19l2.757 -7.351a1 1 0 0 1 .936 -.649h12.307a1 1 0 0 1 .986 1.164l-.996 5.211a2 2 0 0 1 -1.964 1.625h-14.026a2 2 0 0 1 -2 -2v-11a2 2 0 0 1 2 -2h4l3 3h7a2 2 0 0 1 2 2v2" />
</symbol>
<symbol id="i-chevron-down" viewBox="0 0 24 24" fill="none" stroke="currentColor" stroke-width="2" stroke-linecap="round" stroke-linejoin="round">
<path d="M6 9l6 6l6 -6" />
</symbol>
<symbol id="i-chevron-right" viewBox="0 0 24 24" fill="none" stroke="currentColor" stroke-width="2" stroke-linecap="round" stroke-linejoin="round">
<path d="M9 6l6 6l-6 6" />
</symbol>
<symbol id="i-leaf" viewBox="0 0 24 24" fill="none" stroke="currentColor" stroke-width="2" stroke-linecap="round" stroke-linejoin="round">
<path d="M5 21c.5 -4.5 2.5 -8 7 -10" />
<path d="M9 18c6.218 0 10.5 -3.288 11 -12v-2h-4.014c-9 0 -11.986 4 -12 9c0 1 0 3 2 5h3l.014 0" />
</symbol>
<symbol id="i-notes" viewBox="0 0 24 24" fill="none" stroke="currentColor" stroke-width="2" stroke-linecap="round" stroke-linejoin="round">
<path d="M5 5a2 2 0 0 1 2 -2h10a2 2 0 0 1 2 2v14a2 2 0 0 1 -2 2h-10a2 2 0 0 1 -2 -2l0 -14" />
<path d="M9 7l6 0" />
<path d="M9 11l6 0" />
<path d="M9 15l4 0" />
</symbol>
<symbol id="i-photo" viewBox="0 0 24 24" fill="none" stroke="currentColor" stroke-width="2" stroke-linecap="round" stroke-linejoin="round">
<path d="M15 8h.01" />
<path d="M3 6a3 3 0 0 1 3 -3h12a3 3 0 0 1 3 3v12a3 3 0 0 1 -3 3h-12a3 3 0 0 1 -3 -3v-12" />
<path d="M3 16l5 -5c.928 -.893 2.072 -.893 3 0l5 5" />
<path d="M14 14l1 -1c.928 -.893 2.072 -.893 3 0l3 3" />
</symbol>
<symbol id="i-link" viewBox="0 0 24 24" fill="none" stroke="currentColor" stroke-width="2" stroke-linecap="round" stroke-linejoin="round">
<path d="M9 15l6 -6" />
<path d="M11 6l.463 -.536a5 5 0 0 1 7.071 7.072l-.534 .464" />
<path d="M13 18l-.397 .534a5.068 5.068 0 0 1 -7.127 0a4.972 4.972 0 0 1 0 -7.071l.524 -.463" />
</symbol>
<symbol id="i-wifi" viewBox="0 0 24 24" fill="none" stroke="currentColor" stroke-width="2" stroke-linecap="round" stroke-linejoin="round">
<path d="M12 18l.01 0" />
<path d="M9.172 15.172a4 4 0 0 1 5.656 0" />
<path d="M6.343 12.343a8 8 0 0 1 11.314 0" />
<path d="M3.515 9.515c4.686 -4.687 12.284 -4.687 17 0" />
</symbol>
<symbol id="i-qrcode" viewBox="0 0 24 24" fill="none" stroke="currentColor" stroke-width="2" stroke-linecap="round" stroke-linejoin="round">
<path d="M4 5a1 1 0 0 1 1 -1h4a1 1 0 0 1 1 1v4a1 1 0 0 1 -1 1h-4a1 1 0 0 1 -1 -1l0 -4" />
<path d="M7 17l0 .01" />
<path d="M14 5a1 1 0 0 1 1 -1h4a1 1 0 0 1 1 1v4a1 1 0 0 1 -1 1h-4a1 1 0 0 1 -1 -1l0 -4" />
<path d="M7 7l0 .01" />
<path d="M4 15a1 1 0 0 1 1 -1h4a1 1 0 0 1 1 1v4a1 1 0 0 1 -1 1h-4a1 1 0 0 1 -1 -1l0 -4" />
<path d="M17 7l0 .01" />
<path d="M14 14l3 0" />
<path d="M20 14l0 .01" />
<path d="M14 14l0 3" />
<path d="M14 20l3 0" />
<path d="M17 17l3 0" />
<path d="M20 17l0 3" />
</symbol>
<symbol id="i-plus" viewBox="0 0 24 24" fill="none" stroke="currentColor" stroke-width="2" stroke-linecap="round" stroke-linejoin="round">
<path d="M12 5l0 14" />
<path d="M5 12l14 0" />
</symbol>
<symbol id="i-download" viewBox="0 0 24 24" fill="none" stroke="currentColor" stroke-width="2" stroke-linecap="round" stroke-linejoin="round">
<path d="M4 17v2a2 2 0 0 0 2 2h12a2 2 0 0 0 2 -2v-2" />
<path d="M7 11l5 5l5 -5" />
<path d="M12 4l0 12" />
</symbol>
<symbol id="i-arrows-maximize" viewBox="0 0 24 24" fill="none" stroke="currentColor" stroke-width="2" stroke-linecap="round" stroke-linejoin="round">
<path d="M16 4l4 0l0 4" />
<path d="M14 10l6 -6" />
<path d="M8 20l-4 0l0 -4" />
<path d="M4 20l6 -6" />
<path d="M16 20l4 0l0 -4" />
<path d="M14 14l6 6" />
<path d="M8 4l-4 0l0 4" />
<path d="M4 4l6 6" />
</symbol>
<symbol id="i-seedling" viewBox="0 0 24 24" fill="none" stroke="currentColor" stroke-width="2" stroke-linecap="round" stroke-linejoin="round">
<path d="M12 10a6 6 0 0 0 -6 -6h-3v2a6 6 0 0 0 6 6h3" />
<path d="M12 14a6 6 0 0 1 6 -6h3v1a6 6 0 0 1 -6 6h-3" />
<path d="M12 20l0 -10" />
</symbol>
<symbol id="i-user" viewBox="0 0 24 24" fill="none" stroke="currentColor" stroke-width="2" stroke-linecap="round" stroke-linejoin="round">
<path d="M8 7a4 4 0 1 0 8 0a4 4 0 0 0 -8 0" />
<path d="M6 21v-2a4 4 0 0 1 4 -4h4a4 4 0 0 1 4 4v2" />
</symbol>
<symbol id="i-settings" viewBox="0 0 24 24" fill="none" stroke="currentColor" stroke-width="2" stroke-linecap="round" stroke-linejoin="round">
<path d="M10.325 4.317c.426 -1.756 2.924 -1.756 3.35 0a1.724 1.724 0 0 0 2.573 1.066c1.543 -.94 3.31 .826 2.37 2.37a1.724 1.724 0 0 0 1.065 2.572c1.756 .426 1.756 2.924 0 3.35a1.724 1.724 0 0 0 -1.066 2.573c.94 1.543 -.826 3.31 -2.37 2.37a1.724 1.724 0 0 0 -2.572 1.065c-.426 1.756 -2.924 1.756 -3.35 0a1.724 1.724 0 0 0 -2.573 -1.066c-1.543 .94 -3.31 -.826 -2.37 -2.37a1.724 1.724 0 0 0 -1.065 -2.572c-1.756 -.426 -1.756 -2.924 0 -3.35a1.724 1.724 0 0 0 1.066 -2.573c-.94 -1.543 .826 -3.31 2.37 -2.37c1 .608 2.296 .07 2.572 -1.065" />
<path d="M9 12a3 3 0 1 0 6 0a3 3 0 0 0 -6 0" />
</symbol>
<symbol id="i-logout" viewBox="0 0 24 24" fill="none" stroke="currentColor" stroke-width="2" stroke-linecap="round" stroke-linejoin="round">
<path d="M14 8v-2a2 2 0 0 0 -2 -2h-7a2 2 0 0 0 -2 2v12a2 2 0 0 0 2 2h7a2 2 0 0 0 2 -2v-2" />
<path d="M9 12h12l-3 -3" />
<path d="M18 15l3 -3" />
</symbol>
<symbol id="i-arrow-left" viewBox="0 0 24 24" fill="none" stroke="currentColor" stroke-width="2" stroke-linecap="round" stroke-linejoin="round">
<path d="M5 12l14 0" />
<path d="M5 12l6 6" />
<path d="M5 12l6 -6" />
</symbol>
<symbol id="i-arrow-right" viewBox="0 0 24 24" fill="none" stroke="currentColor" stroke-width="2" stroke-linecap="round" stroke-linejoin="round">
<path d="M5 12l14 0" />
<path d="M13 18l6 -6" />
<path d="M13 6l6 6" />
</symbol>
<symbol id="i-check" viewBox="0 0 24 24" fill="none" stroke="currentColor" stroke-width="2" stroke-linecap="round" stroke-linejoin="round">
<path d="M5 12l5 5l10 -10" />
</symbol>
<symbol id="i-x" viewBox="0 0 24 24" fill="none" stroke="currentColor" stroke-width="2" stroke-linecap="round" stroke-linejoin="round">
<path d="M18 6l-12 12" />
<path d="M6 6l12 12" />
</symbol>
<symbol id="i-alert-triangle" viewBox="0 0 24 24" fill="none" stroke="currentColor" stroke-width="2" stroke-linecap="round" stroke-linejoin="round">
<path d="M12 9v4" />
<path d="M10.363 3.591l-8.106 13.534a1.914 1.914 0 0 0 1.636 2.871h16.214a1.914 1.914 0 0 0 1.636 -2.87l-8.106 -13.536a1.914 1.914 0 0 0 -3.274 0" />
<path d="M12 16h.01" />
</symbol>
<symbol id="i-phone" viewBox="0 0 24 24" fill="none" stroke="currentColor" stroke-width="2" stroke-linecap="round" stroke-linejoin="round">
<path d="M5 4h4l2 5l-2.5 1.5a11 11 0 0 0 5 5l1.5 -2.5l5 2v4a2 2 0 0 1 -2 2a16 16 0 0 1 -15 -15a2 2 0 0 1 2 -2" />
</symbol>
<symbol id="i-mail" viewBox="0 0 24 24" fill="none" stroke="currentColor" stroke-width="2" stroke-linecap="round" stroke-linejoin="round">
<path d="M3 7a2 2 0 0 1 2 -2h14a2 2 0 0 1 2 2v10a2 2 0 0 1 -2 2h-14a2 2 0 0 1 -2 -2v-10" />
<path d="M3 7l9 6l9 -6" />
</symbol>
<symbol id="i-message-circle" viewBox="0 0 24 24" fill="none" stroke="currentColor" stroke-width="2" stroke-linecap="round" stroke-linejoin="round">
<path d="M3 20l1.3 -3.9c-2.324 -3.437 -1.426 -7.872 2.1 -10.374c3.526 -2.501 8.59 -2.296 11.845 .48c3.255 2.777 3.695 7.266 1.029 10.501c-2.666 3.235 -7.615 4.215 -11.574 2.293l-4.7 1" />
</symbol>
<symbol id="i-map-pin" viewBox="0 0 24 24" fill="none" stroke="currentColor" stroke-width="2" stroke-linecap="round" stroke-linejoin="round">
<path d="M9 11a3 3 0 1 0 6 0a3 3 0 0 0 -6 0" />
<path d="M17.657 16.657l-4.243 4.243a2 2 0 0 1 -2.827 0l-4.244 -4.243a8 8 0 1 1 11.314 0" />
</symbol>
<symbol id="i-lock" viewBox="0 0 24 24" fill="none" stroke="currentColor" stroke-width="2" stroke-linecap="round" stroke-linejoin="round">
<path d="M5 13a2 2 0 0 1 2 -2h10a2 2 0 0 1 2 2v6a2 2 0 0 1 -2 2h-10a2 2 0 0 1 -2 -2v-6" />
<path d="M11 16a1 1 0 1 0 2 0a1 1 0 0 0 -2 0" />
<path d="M8 11v-4a4 4 0 1 1 8 0v4" />
</symbol>
<symbol id="i-shield-lock" viewBox="0 0 24 24" fill="none" stroke="currentColor" stroke-width="2" stroke-linecap="round" stroke-linejoin="round">
<path d="M12 3a12 12 0 0 0 8.5 3a12 12 0 0 1 -8.5 15a12 12 0 0 1 -8.5 -15a12 12 0 0 0 8.5 -3" />
<path d="M11 11a1 1 0 1 0 2 0a1 1 0 1 0 -2 0" />
<path d="M12 12l0 2.5" />
</symbol>
<symbol id="i-dots-vertical" viewBox="0 0 24 24" fill="none" stroke="currentColor" stroke-width="2" stroke-linecap="round" stroke-linejoin="round">
<path d="M11 12a1 1 0 1 0 2 0a1 1 0 1 0 -2 0" />
<path d="M11 19a1 1 0 1 0 2 0a1 1 0 1 0 -2 0" />
<path d="M11 5a1 1 0 1 0 2 0a1 1 0 1 0 -2 0" />
</symbol>
<symbol id="i-edit" viewBox="0 0 24 24" fill="none" stroke="currentColor" stroke-width="2" stroke-linecap="round" stroke-linejoin="round">
<path d="M7 7h-1a2 2 0 0 0 -2 2v9a2 2 0 0 0 2 2h9a2 2 0 0 0 2 -2v-1" />
<path d="M20.385 6.585a2.1 2.1 0 0 0 -2.97 -2.97l-8.415 8.385v3h3l8.385 -8.415" />
<path d="M16 5l3 3" />
</symbol>
<symbol id="i-trash" viewBox="0 0 24 24" fill="none" stroke="currentColor" stroke-width="2" stroke-linecap="round" stroke-linejoin="round">
<path d="M4 7l16 0" />
<path d="M10 11l0 6" />
<path d="M14 11l0 6" />
<path d="M5 7l1 12a2 2 0 0 0 2 2h8a2 2 0 0 0 2 -2l1 -12" />
<path d="M9 7v-3a1 1 0 0 1 1 -1h4a1 1 0 0 1 1 1v3" />
</symbol>
<symbol id="i-filter" viewBox="0 0 24 24" fill="none" stroke="currentColor" stroke-width="2" stroke-linecap="round" stroke-linejoin="round">
<path d="M4 4h16v2.172a2 2 0 0 1 -.586 1.414l-4.414 4.414v7l-6 2v-8.5l-4.48 -4.928a2 2 0 0 1 -.52 -1.345v-2.227" />
</symbol>
<symbol id="i-help-circle" viewBox="0 0 24 24" fill="none" stroke="currentColor" stroke-width="2" stroke-linecap="round" stroke-linejoin="round">
<path d="M3 12a9 9 0 1 0 18 0a9 9 0 0 0 -18 0" />
<path d="M12 16v.01" />
<path d="M12 13a2 2 0 0 0 .914 -3.782a1.98 1.98 0 0 0 -2.414 .483" />
</symbol>
<symbol id="i-folder-question" viewBox="0 0 24 24" fill="none" stroke="currentColor" stroke-width="2" stroke-linecap="round" stroke-linejoin="round">
<path d="M15 19h-10a2 2 0 0 1 -2 -2v-11a2 2 0 0 1 2 -2h4l3 3h7a2 2 0 0 1 2 2v2.5" />
<path d="M19 22v.01" />
<path d="M19 19a2.003 2.003 0 0 0 .914 -3.782a1.98 1.98 0 0 0 -2.414 .483" />
</symbol>
</svg>
